<svg width="2334" height="363" viewBox="0 0 2334 363" fill="none" xmlns="http://www.w3.org/2000/svg">
<path d="M454.234 1.12578V1H2333V362H454.234V361.874C448.772 361.958 443.286 362 437.775 362C196.551 362 1 281.187 1 181.5C1 81.8126 196.551 1 437.775 1C443.286 1 448.772 1.04217 454.234 1.12578Z" fill="#C4C4C4"/>
<path d="M70.0423 144.454H139.085V216.969H70.0423V144.454Z" fill="#C4C4C4"/>
<path d="M140.19 218.546L271.288 265.689L236.967 304.698L105.869 257.555L140.19 218.546Z" fill="#C4C4C4"/>
<path d="M137.095 218.509L103.292 255.925L69.5126 218.948L137.095 218.509Z" fill="#C4C4C4"/>
<path d="M498.289 38H523.091V66H498.289V38Z" fill="#C4C4C4"/>
<path d="M533.354 38H558.156V66H533.354V38Z" fill="#C4C4C4"/>
<path d="M568.418 38H593.22V66H568.418V38Z" fill="#C4C4C4"/>
<path d="M603.483 38H628.285V66H603.483V38Z" fill="#C4C4C4"/>
<path d="M638.548 38H663.35V66H638.548V38Z" fill="#C4C4C4"/>
<path d="M673.613 38H698.415V66H673.613V38Z" fill="#C4C4C4"/>
<path d="M708.678 38H733.48V66H708.678V38Z" fill="#C4C4C4"/>
<path d="M743.743 38H768.545V66H743.743V38Z" fill="#C4C4C4"/>
<path d="M778.808 38H803.61V66H778.808V38Z" fill="#C4C4C4"/>
<path d="M813.873 38H838.675V66H813.873V38Z" fill="#C4C4C4"/>
<path d="M848.938 38H873.74V66H848.938V38Z" fill="#C4C4C4"/>
<path d="M884.003 38H908.805V66H884.003V38Z" fill="#C4C4C4"/>
<path d="M919.068 38H943.87V66H919.068V38Z" fill="#C4C4C4"/>
<path d="M954.133 38H978.935V66H954.133V38Z" fill="#C4C4C4"/>
<path d="M989.198 38H1014V66H989.198V38Z" fill="#C4C4C4"/>
<path d="M463.224 74H488.026V102H463.224V74Z" fill="#C4C4C4"/>
<path d="M498.289 74H523.091V102H498.289V74Z" fill="#C4C4C4"/>
<path d="M533.354 74H558.156V102H533.354V74Z" fill="#C4C4C4"/>
<path d="M568.418 74H593.22V102H568.418V74Z" fill="#C4C4C4"/>
<path d="M603.483 74H628.285V102H603.483V74Z" fill="#C4C4C4"/>
<path d="M638.548 74H663.35V102H638.548V74Z" fill="#C4C4C4"/>
<path d="M673.613 74H698.415V102H673.613V74Z" fill="#C4C4C4"/>
<path d="M708.678 74H733.48V102H708.678V74Z" fill="#C4C4C4"/>
<path d="M743.743 74H768.545V102H743.743V74Z" fill="#C4C4C4"/>
<path d="M778.808 74H803.61V102H778.808V74Z" fill="#C4C4C4"/>
<path d="M813.873 74H838.675V102H813.873V74Z" fill="#C4C4C4"/>
<path d="M848.938 74H873.74V102H848.938V74Z" fill="#C4C4C4"/>
<path d="M884.003 74H908.805V102H884.003V74Z" fill="#C4C4C4"/>
<path d="M919.068 74H943.87V102H919.068V74Z" fill="#C4C4C4"/>
<path d="M954.133 74H978.935V102H954.133V74Z" fill="#C4C4C4"/>
<path d="M989.198 74H1014V102H989.198V74Z" fill="#C4C4C4"/>
<path d="M1136.06 42H1160.87V70H1136.06V42Z" fill="#C4C4C4"/>
<path d="M1171.13 42H1195.93V70H1171.13V42Z" fill="#C4C4C4"/>
<path d="M1206.19 42H1231V70H1206.19V42Z" fill="#C4C4C4"/>
<path d="M1241.26 42H1266.06V70H1241.26V42Z" fill="#C4C4C4"/>
<path d="M1276.32 42H1301.13V70H1276.32V42Z" fill="#C4C4C4"/>
<path d="M1311.39 42H1336.19V70H1311.39V42Z" fill="#C4C4C4"/>
<path d="M1346.45 42H1371.26V70H1346.45V42Z" fill="#C4C4C4"/>
<path d="M1381.52 42H1406.32V70H1381.52V42Z" fill="#C4C4C4"/>
<path d="M1416.58 42H1441.39V70H1416.58V42Z" fill="#C4C4C4"/>
<path d="M1451.65 42H1476.45V70H1451.65V42Z" fill="#C4C4C4"/>
<path d="M1486.71 42H1511.52V70H1486.71V42Z" fill="#C4C4C4"/>
<path d="M1521.78 42H1546.58V70H1521.78V42Z" fill="#C4C4C4"/>
<path d="M1556.84 42H1581.65V70H1556.84V42Z" fill="#C4C4C4"/>
<path d="M1591.91 42H1616.71V70H1591.91V42Z" fill="#C4C4C4"/>
<path d="M1626.97 42H1651.78V70H1626.97V42Z" fill="#C4C4C4"/>
<path d="M1101 78H1125.8V106H1101V78Z" fill="#C4C4C4"/>
<path d="M1136.06 78H1160.87V106H1136.06V78Z" fill="#C4C4C4"/>
<path d="M1171.13 78H1195.93V106H1171.13V78Z" fill="#C4C4C4"/>
<path d="M1206.19 78H1231V106H1206.19V78Z" fill="#C4C4C4"/>
<path d="M1241.26 78H1266.06V106H1241.26V78Z" fill="#C4C4C4"/>
<path d="M1276.32 78H1301.13V106H1276.32V78Z" fill="#C4C4C4"/>
<path d="M1311.39 78H1336.19V106H1311.39V78Z" fill="#C4C4C4"/>
<path d="M1346.45 78H1371.26V106H1346.45V78Z" fill="#C4C4C4"/>
<path d="M1381.52 78H1406.32V106H1381.52V78Z" fill="#C4C4C4"/>
<path d="M1416.58 78H1441.39V106H1416.58V78Z" fill="#C4C4C4"/>
<path d="M1451.65 78H1476.45V106H1451.65V78Z" fill="#C4C4C4"/>
<path d="M1486.71 78H1511.52V106H1486.71V78Z" fill="#C4C4C4"/>
<path d="M1521.78 78H1546.58V106H1521.78V78Z" fill="#C4C4C4"/>
<path d="M1556.84 78H1581.65V106H1556.84V78Z" fill="#C4C4C4"/>
<path d="M1591.91 78H1616.71V106H1591.91V78Z" fill="#C4C4C4"/>
<path d="M1626.97 78H1651.78V106H1626.97V78Z" fill="#C4C4C4"/>
<path d="M1773.84 46H1798.64V74H1773.84V46Z" fill="#C4C4C4"/>
<path d="M1808.91 46H1833.71V74H1808.91V46Z" fill="#C4C4C4"/>
<path d="M1843.97 46H1868.77V74H1843.97V46Z" fill="#C4C4C4"/>
<path d="M1879.04 46H1903.84V74H1879.04V46Z" fill="#C4C4C4"/>
<path d="M1914.1 46H1938.9V74H1914.1V46Z" fill="#C4C4C4"/>
<path d="M1949.17 46H1973.97V74H1949.17V46Z" fill="#C4C4C4"/>
<path d="M1984.23 46H2009.03V74H1984.23V46Z" fill="#C4C4C4"/>
<path d="M2019.3 46H2044.1V74H2019.3V46Z" fill="#C4C4C4"/>
<path d="M2054.36 46H2079.16V74H2054.36V46Z" fill="#C4C4C4"/>
<path d="M2089.43 46H2114.23V74H2089.43V46Z" fill="#C4C4C4"/>
<path d="M2124.49 46H2149.29V74H2124.49V46Z" fill="#C4C4C4"/>
<path d="M2159.56 46H2184.36V74H2159.56V46Z" fill="#C4C4C4"/>
<path d="M2194.62 46H2219.42V74H2194.62V46Z" fill="#C4C4C4"/>
<path d="M2229.69 46H2254.49V74H2229.69V46Z" fill="#C4C4C4"/>
<path d="M2264.75 46H2289.55V74H2264.75V46Z" fill="#C4C4C4"/>
<path d="M1738.78 82H1763.58V110H1738.78V82Z" fill="#C4C4C4"/>
<path d="M1773.84 82H1798.64V110H1773.84V82Z" fill="#C4C4C4"/>
<path d="M1808.91 82H1833.71V110H1808.91V82Z" fill="#C4C4C4"/>
<path d="M1843.97 82H1868.77V110H1843.97V82Z" fill="#C4C4C4"/>
<path d="M1879.04 82H1903.84V110H1879.04V82Z" fill="#C4C4C4"/>
<path d="M1914.1 82H1938.9V110H1914.1V82Z" fill="#C4C4C4"/>
<path d="M1949.17 82H1973.97V110H1949.17V82Z" fill="#C4C4C4"/>
<path d="M1984.23 82H2009.03V110H1984.23V82Z" fill="#C4C4C4"/>
<path d="M2019.3 82H2044.1V110H2019.3V82Z" fill="#C4C4C4"/>
<path d="M2054.36 82H2079.16V110H2054.36V82Z" fill="#C4C4C4"/>
<path d="M2089.43 82H2114.23V110H2089.43V82Z" fill="#C4C4C4"/>
<path d="M2124.49 82H2149.29V110H2124.49V82Z" fill="#C4C4C4"/>
<path d="M2159.56 82H2184.36V110H2159.56V82Z" fill="#C4C4C4"/>
<path d="M2194.62 82H2219.42V110H2194.62V82Z" fill="#C4C4C4"/>
<path d="M2229.69 82H2254.49V110H2229.69V82Z" fill="#C4C4C4"/>
<path d="M2264.75 82H2289.55V110H2264.75V82Z" fill="#C4C4C4"/>
<path d="M498.289 152H523.091V180H498.289V152Z" fill="#C4C4C4"/>
<path d="M533.354 152H558.156V180H533.354V152Z" fill="#C4C4C4"/>
<path d="M568.418 152H593.22V180H568.418V152Z" fill="#C4C4C4"/>
<path d="M603.483 152H628.285V180H603.483V152Z" fill="#C4C4C4"/>
<path d="M638.548 152H663.35V180H638.548V152Z" fill="#C4C4C4"/>
<path d="M673.613 152H698.415V180H673.613V152Z" fill="#C4C4C4"/>
<path d="M708.678 152H733.48V180H708.678V152Z" fill="#C4C4C4"/>
<path d="M743.743 152H768.545V180H743.743V152Z" fill="#C4C4C4"/>
<path d="M778.808 152H803.61V180H778.808V152Z" fill="#C4C4C4"/>
<path d="M813.873 152H838.675V180H813.873V152Z" fill="#C4C4C4"/>
<path d="M848.938 152H873.74V180H848.938V152Z" fill="#C4C4C4"/>
<path d="M884.003 152H908.805V180H884.003V152Z" fill="#C4C4C4"/>
<path d="M919.068 152H943.87V180H919.068V152Z" fill="#C4C4C4"/>
<path d="M954.133 152H978.935V180H954.133V152Z" fill="#C4C4C4"/>
<path d="M989.198 152H1014V180H989.198V152Z" fill="#C4C4C4"/>
<path d="M463.224 188H488.026V216H463.224V188Z" fill="#C4C4C4"/>
<path d="M498.289 188H523.091V216H498.289V188Z" fill="#C4C4C4"/>
<path d="M533.354 188H558.156V216H533.354V188Z" fill="#C4C4C4"/>
<path d="M568.418 188H593.22V216H568.418V188Z" fill="#C4C4C4"/>
<path d="M603.483 188H628.285V216H603.483V188Z" fill="#C4C4C4"/>
<path d="M638.548 188H663.35V216H638.548V188Z" fill="#C4C4C4"/>
<path d="M673.613 188H698.415V216H673.613V188Z" fill="#C4C4C4"/>
<path d="M708.678 188H733.48V216H708.678V188Z" fill="#C4C4C4"/>
<path d="M743.743 188H768.545V216H743.743V188Z" fill="#C4C4C4"/>
<path d="M778.808 188H803.61V216H778.808V188Z" fill="#C4C4C4"/>
<path d="M813.873 188H838.675V216H813.873V188Z" fill="#C4C4C4"/>
<path d="M848.938 188H873.74V216H848.938V188Z" fill="#C4C4C4"/>
<path d="M884.003 188H908.805V216H884.003V188Z" fill="#C4C4C4"/>
<path d="M919.068 188H943.87V216H919.068V188Z" fill="#C4C4C4"/>
<path d="M954.133 188H978.935V216H954.133V188Z" fill="#C4C4C4"/>
<path d="M989.198 188H1014V216H989.198V188Z" fill="#C4C4C4"/>
<path d="M1136.06 156H1160.87V184H1136.06V156Z" fill="#C4C4C4"/>
<path d="M1171.13 156H1195.93V184H1171.13V156Z" fill="#C4C4C4"/>
<path d="M1206.19 156H1231V184H1206.19V156Z" fill="#C4C4C4"/>
<path d="M1241.26 156H1266.06V184H1241.26V156Z" fill="#C4C4C4"/>
<path d="M1276.32 156H1301.13V184H1276.32V156Z" fill="#C4C4C4"/>
<path d="M1311.39 156H1336.19V184H1311.39V156Z" fill="#C4C4C4"/>
<path d="M1346.45 156H1371.26V184H1346.45V156Z" fill="#C4C4C4"/>
<path d="M1381.52 156H1406.32V184H1381.52V156Z" fill="#C4C4C4"/>
<path d="M1416.58 156H1441.39V184H1416.58V156Z" fill="#C4C4C4"/>
<path d="M1451.65 156H1476.45V184H1451.65V156Z" fill="#C4C4C4"/>
<path d="M1486.71 156H1511.52V184H1486.71V156Z" fill="#C4C4C4"/>
<path d="M1521.78 156H1546.58V184H1521.78V156Z" fill="#C4C4C4"/>
<path d="M1556.84 156H1581.65V184H1556.84V156Z" fill="#C4C4C4"/>
<path d="M1591.91 156H1616.71V184H1591.91V156Z" fill="#C4C4C4"/>
<path d="M1626.97 156H1651.78V184H1626.97V156Z" fill="#C4C4C4"/>
<path d="M1101 192H1125.8V220H1101V192Z" fill="#C4C4C4"/>
<path d="M1136.06 192H1160.87V220H1136.06V192Z" fill="#C4C4C4"/>
<path d="M1171.13 192H1195.93V220H1171.13V192Z" fill="#C4C4C4"/>
<path d="M1206.19 192H1231V220H1206.19V192Z" fill="#C4C4C4"/>
<path d="M1241.26 192H1266.06V220H1241.26V192Z" fill="#C4C4C4"/>
<path d="M1276.32 192H1301.13V220H1276.32V192Z" fill="#C4C4C4"/>
<path d="M1311.39 192H1336.19V220H1311.39V192Z" fill="#C4C4C4"/>
<path d="M1346.45 192H1371.26V220H1346.45V192Z" fill="#C4C4C4"/>
<path d="M1381.52 192H1406.32V220H1381.52V192Z" fill="#C4C4C4"/>
<path d="M1416.58 192H1441.39V220H1416.58V192Z" fill="#C4C4C4"/>
<path d="M1451.65 192H1476.45V220H1451.65V192Z" fill="#C4C4C4"/>
<path d="M1486.71 192H1511.52V220H1486.71V192Z" fill="#C4C4C4"/>
<path d="M1521.78 192H1546.58V220H1521.78V192Z" fill="#C4C4C4"/>
<path d="M1556.84 192H1581.65V220H1556.84V192Z" fill="#C4C4C4"/>
<path d="M1591.91 192H1616.71V220H1591.91V192Z" fill="#C4C4C4"/>
<path d="M1626.97 192H1651.78V220H1626.97V192Z" fill="#C4C4C4"/>
<path d="M1773.84 160H1798.64V188H1773.84V160Z" fill="#C4C4C4"/>
<path d="M1808.91 160H1833.71V188H1808.91V160Z" fill="#C4C4C4"/>
<path d="M1843.97 160H1868.77V188H1843.97V160Z" fill="#C4C4C4"/>
<path d="M1879.04 160H1903.84V188H1879.04V160Z" fill="#C4C4C4"/>
<path d="M1914.1 160H1938.9V188H1914.1V160Z" fill="#C4C4C4"/>
<path d="M1949.17 160H1973.97V188H1949.17V160Z" fill="#C4C4C4"/>
<path d="M1984.23 160H2009.03V188H1984.23V160Z" fill="#C4C4C4"/>
<path d="M2019.3 160H2044.1V188H2019.3V160Z" fill="#C4C4C4"/>
<path d="M2054.36 160H2079.16V188H2054.36V160Z" fill="#C4C4C4"/>
<path d="M2089.43 160H2114.23V188H2089.43V160Z" fill="#C4C4C4"/>
<path d="M2124.49 160H2149.29V188H2124.49V160Z" fill="#C4C4C4"/>
<path d="M2159.56 160H2184.36V188H2159.56V160Z" fill="#C4C4C4"/>
<path d="M2194.62 160H2219.42V188H2194.62V160Z" fill="#C4C4C4"/>
<path d="M2229.69 160H2254.49V188H2229.69V160Z" fill="#C4C4C4"/>
<path d="M2264.75 160H2289.55V188H2264.75V160Z" fill="#C4C4C4"/>
<path d="M1738.78 196H1763.58V224H1738.78V196Z" fill="#C4C4C4"/>
<path d="M1773.84 196H1798.64V224H1773.84V196Z" fill="#C4C4C4"/>
<path d="M1808.91 196H1833.71V224H1808.91V196Z" fill="#C4C4C4"/>
<path d="M1843.97 196H1868.77V224H1843.97V196Z" fill="#C4C4C4"/>
<path d="M1879.04 196H1903.84V224H1879.04V196Z" fill="#C4C4C4"/>
<path d="M1914.1 196H1938.9V224H1914.1V196Z" fill="#C4C4C4"/>
<path d="M1949.17 196H1973.97V224H1949.17V196Z" fill="#C4C4C4"/>
<path d="M1984.23 196H2009.03V224H1984.23V196Z" fill="#C4C4C4"/>
<path d="M2019.3 196H2044.1V224H2019.3V196Z" fill="#C4C4C4"/>
<path d="M2054.36 196H2079.16V224H2054.36V196Z" fill="#C4C4C4"/>
<path d="M2089.43 196H2114.23V224H2089.43V196Z" fill="#C4C4C4"/>
<path d="M2124.49 196H2149.29V224H2124.49V196Z" fill="#C4C4C4"/>
<path d="M2159.56 196H2184.36V224H2159.56V196Z" fill="#C4C4C4"/>
<path d="M2194.62 196H2219.42V224H2194.62V196Z" fill="#C4C4C4"/>
<path d="M2229.69 196H2254.49V224H2229.69V196Z" fill="#C4C4C4"/>
<path d="M2264.75 196H2289.55V224H2264.75V196Z" fill="#C4C4C4"/>
<path d="M498.289 266H523.091V294H498.289V266Z" fill="#C4C4C4"/>
<path d="M533.354 266H558.156V294H533.354V266Z" fill="#C4C4C4"/>
<path d="M568.418 266H593.22V294H568.418V266Z" fill="#C4C4C4"/>
<path d="M603.483 266H628.285V294H603.483V266Z" fill="#C4C4C4"/>
<path d="M638.548 266H663.35V294H638.548V266Z" fill="#C4C4C4"/>
<path d="M673.613 266H698.415V294H673.613V266Z" fill="#C4C4C4"/>
<path d="M708.678 266H733.48V294H708.678V266Z" fill="#C4C4C4"/>
<path d="M743.743 266H768.545V294H743.743V266Z" fill="#C4C4C4"/>
<path d="M778.808 266H803.61V294H778.808V266Z" fill="#C4C4C4"/>
<path d="M813.873 266H838.675V294H813.873V266Z" fill="#C4C4C4"/>
<path d="M848.938 266H873.74V294H848.938V266Z" fill="#C4C4C4"/>
<path d="M884.003 266H908.805V294H884.003V266Z" fill="#C4C4C4"/>
<path d="M919.068 266H943.87V294H919.068V266Z" fill="#C4C4C4"/>
<path d="M954.133 266H978.935V294H954.133V266Z" fill="#C4C4C4"/>
<path d="M989.198 266H1014V294H989.198V266Z" fill="#C4C4C4"/>
<path d="M463.224 302H488.026V330H463.224V302Z" fill="#C4C4C4"/>
<path d="M498.289 302H523.091V330H498.289V302Z" fill="#C4C4C4"/>
<path d="M533.354 302H558.156V330H533.354V302Z" fill="#C4C4C4"/>
<path d="M568.418 302H593.22V330H568.418V302Z" fill="#C4C4C4"/>
<path d="M603.483 302H628.285V330H603.483V302Z" fill="#C4C4C4"/>
<path d="M638.548 302H663.35V330H638.548V302Z" fill="#C4C4C4"/>
<path d="M673.613 302H698.415V330H673.613V302Z" fill="#C4C4C4"/>
<path d="M708.678 302H733.48V330H708.678V302Z" fill="#C4C4C4"/>
<path d="M743.743 302H768.545V330H743.743V302Z" fill="#C4C4C4"/>
<path d="M778.808 302H803.61V330H778.808V302Z" fill="#C4C4C4"/>
<path d="M813.873 302H838.675V330H813.873V302Z" fill="#C4C4C4"/>
<path d="M848.938 302H873.74V330H848.938V302Z" fill="#C4C4C4"/>
<path d="M884.003 302H908.805V330H884.003V302Z" fill="#C4C4C4"/>
<path d="M919.068 302H943.87V330H919.068V302Z" fill="#C4C4C4"/>
<path d="M954.133 302H978.935V330H954.133V302Z" fill="#C4C4C4"/>
<path d="M989.198 302H1014V330H989.198V302Z" fill="#C4C4C4"/>
<path d="M1136.06 270H1160.87V298H1136.06V270Z" fill="#C4C4C4"/>
<path d="M1171.13 270H1195.93V298H1171.13V270Z" fill="#C4C4C4"/>
<path d="M1206.19 270H1231V298H1206.19V270Z" fill="#C4C4C4"/>
<path d="M1241.26 270H1266.06V298H1241.26V270Z" fill="#C4C4C4"/>
<path d="M1276.32 270H1301.13V298H1276.32V270Z" fill="#C4C4C4"/>
<path d="M1311.39 270H1336.19V298H1311.39V270Z" fill="#C4C4C4"/>
<path d="M1346.45 270H1371.26V298H1346.45V270Z" fill="#C4C4C4"/>
<path d="M1381.52 270H1406.32V298H1381.52V270Z" fill="#C4C4C4"/>
<path d="M1416.58 270H1441.39V298H1416.58V270Z" fill="#C4C4C4"/>
<path d="M1451.65 270H1476.45V298H1451.65V270Z" fill="#C4C4C4"/>
<path d="M1486.71 270H1511.52V298H1486.71V270Z" fill="#C4C4C4"/>
<path d="M1521.78 270H1546.58V298H1521.78V270Z" fill="#C4C4C4"/>
<path d="M1556.84 270H1581.65V298H1556.84V270Z" fill="#C4C4C4"/>
<path d="M1591.91 270H1616.71V298H1591.91V270Z" fill="#C4C4C4"/>
<path d="M1626.97 270H1651.78V298H1626.97V270Z" fill="#C4C4C4"/>
<path d="M1101 306H1125.8V334H1101V306Z" fill="#C4C4C4"/>
<path d="M1136.06 306H1160.87V334H1136.06V306Z" fill="#C4C4C4"/>
<path d="M1171.13 306H1195.93V334H1171.13V306Z" fill="#C4C4C4"/>
<path d="M1206.19 306H1231V334H1206.19V306Z" fill="#C4C4C4"/>
<path d="M1241.26 306H1266.06V334H1241.26V306Z" fill="#C4C4C4"/>
<path d="M1276.32 306H1301.13V334H1276.32V306Z" fill="#C4C4C4"/>
<path d="M1311.39 306H1336.19V334H1311.39V306Z" fill="#C4C4C4"/>
<path d="M1346.45 306H1371.26V334H1346.45V306Z" fill="#C4C4C4"/>
<path d="M1381.52 306H1406.32V334H1381.52V306Z" fill="#C4C4C4"/>
<path d="M1416.58 306H1441.39V334H1416.58V306Z" fill="#C4C4C4"/>
<path d="M1451.65 306H1476.45V334H1451.65V306Z" fill="#C4C4C4"/>
<path d="M1486.71 306H1511.52V334H1486.71V306Z" fill="#C4C4C4"/>
<path d="M1521.78 306H1546.58V334H1521.78V306Z" fill="#C4C4C4"/>
<path d="M1556.84 306H1581.65V334H1556.84V306Z" fill="#C4C4C4"/>
<path d="M1591.91 306H1616.71V334H1591.91V306Z" fill="#C4C4C4"/>
<path d="M1626.97 306H1651.78V334H1626.97V306Z" fill="#C4C4C4"/>
<path d="M1773.84 274H1798.64V302H1773.84V274Z" fill="#C4C4C4"/>
<path d="M1808.91 274H1833.71V302H1808.91V274Z" fill="#C4C4C4"/>
<path d="M1843.97 274H1868.77V302H1843.97V274Z" fill="#C4C4C4"/>
<path d="M1879.04 274H1903.84V302H1879.04V274Z" fill="#C4C4C4"/>
<path d="M1914.1 274H1938.9V302H1914.1V274Z" fill="#C4C4C4"/>
<path d="M1949.17 274H1973.97V302H1949.17V274Z" fill="#C4C4C4"/>
<path d="M1984.23 274H2009.03V302H1984.23V274Z" fill="#C4C4C4"/>
<path d="M2019.3 274H2044.1V302H2019.3V274Z" fill="#C4C4C4"/>
<path d="M2054.36 274H2079.16V302H2054.36V274Z" fill="#C4C4C4"/>
<path d="M2089.43 274H2114.23V302H2089.43V274Z" fill="#C4C4C4"/>
<path d="M2124.49 274H2149.29V302H2124.49V274Z" fill="#C4C4C4"/>
<path d="M2159.56 274H2184.36V302H2159.56V274Z" fill="#C4C4C4"/>
<path d="M2194.62 274H2219.42V302H2194.62V274Z" fill="#C4C4C4"/>
<path d="M2229.69 274H2254.49V302H2229.69V274Z" fill="#C4C4C4"/>
<path d="M2264.75 274H2289.55V302H2264.75V274Z" fill="#C4C4C4"/>
<path d="M1738.78 310H1763.58V338H1738.78V310Z" fill="#C4C4C4"/>
<path d="M1773.84 310H1798.64V338H1773.84V310Z" fill="#C4C4C4"/>
<path d="M1808.91 310H1833.71V338H1808.91V310Z" fill="#C4C4C4"/>
<path d="M1843.97 310H1868.77V338H1843.97V310Z" fill="#C4C4C4"/>
<path d="M1879.04 310H1903.84V338H1879.04V310Z" fill="#C4C4C4"/>
<path d="M1914.1 310H1938.9V338H1914.1V310Z" fill="#C4C4C4"/>
<path d="M1949.17 310H1973.97V338H1949.17V310Z" fill="#C4C4C4"/>
<path d="M1984.23 310H2009.03V338H1984.23V310Z" fill="#C4C4C4"/>
<path d="M2019.3 310H2044.1V338H2019.3V310Z" fill="#C4C4C4"/>
<path d="M2054.36 310H2079.16V338H2054.36V310Z" fill="#C4C4C4"/>
<path d="M2089.43 310H2114.23V338H2089.43V310Z" fill="#C4C4C4"/>
<path d="M2124.49 310H2149.29V338H2124.49V310Z" fill="#C4C4C4"/>
<path d="M2159.56 310H2184.36V338H2159.56V310Z" fill="#C4C4C4"/>
<path d="M2194.62 310H2219.42V338H2194.62V310Z" fill="#C4C4C4"/>
<path d="M2229.69 310H2254.49V338H2229.69V310Z" fill="#C4C4C4"/>
<path d="M2264.75 310H2289.55V338H2264.75V310Z" fill="#C4C4C4"/>
<path d="M105.816 101.153L236.673 53.7373L271.193 92.6746L140.336 140.091L105.816 101.153Z" fill="#C4C4C4"/>
<path d="M104.168 102.829L136.821 140.66L69.8484 140.052L104.168 102.829Z" fill="#C4C4C4"/>
<path d="M376.301 2.57642L376.301 362M454.234 1.12578V1H2333V362H454.234V361.874C448.772 361.958 443.286 362 437.775 362C196.551 362 1 281.187 1 181.5C1 81.8126 196.551 1 437.775 1C443.286 1 448.772 1.04217 454.234 1.12578ZM70.0423 144.454H139.085V216.969H70.0423V144.454ZM140.19 218.546L271.288 265.689L236.967 304.698L105.869 257.555L140.19 218.546ZM137.095 218.509L103.292 255.925L69.5126 218.948L137.095 218.509ZM498.289 38H523.091V66H498.289V38ZM533.354 38H558.156V66H533.354V38ZM568.418 38H593.22V66H568.418V38ZM603.483 38H628.285V66H603.483V38ZM638.548 38H663.35V66H638.548V38ZM673.613 38H698.415V66H673.613V38ZM708.678 38H733.48V66H708.678V38ZM743.743 38H768.545V66H743.743V38ZM778.808 38H803.61V66H778.808V38ZM813.873 38H838.675V66H813.873V38ZM848.938 38H873.74V66H848.938V38ZM884.003 38H908.805V66H884.003V38ZM919.068 38H943.87V66H919.068V38ZM954.133 38H978.935V66H954.133V38ZM989.198 38H1014V66H989.198V38ZM463.224 74H488.026V102H463.224V74ZM498.289 74H523.091V102H498.289V74ZM533.354 74H558.156V102H533.354V74ZM568.418 74H593.22V102H568.418V74ZM603.483 74H628.285V102H603.483V74ZM638.548 74H663.35V102H638.548V74ZM673.613 74H698.415V102H673.613V74ZM708.678 74H733.48V102H708.678V74ZM743.743 74H768.545V102H743.743V74ZM778.808 74H803.61V102H778.808V74ZM813.873 74H838.675V102H813.873V74ZM848.938 74H873.74V102H848.938V74ZM884.003 74H908.805V102H884.003V74ZM919.068 74H943.87V102H919.068V74ZM954.133 74H978.935V102H954.133V74ZM989.198 74H1014V102H989.198V74ZM1136.06 42H1160.87V70H1136.06V42ZM1171.13 42H1195.93V70H1171.13V42ZM1206.19 42H1231V70H1206.19V42ZM1241.26 42H1266.06V70H1241.26V42ZM1276.32 42H1301.13V70H1276.32V42ZM1311.39 42H1336.19V70H1311.39V42ZM1346.45 42H1371.26V70H1346.45V42ZM1381.52 42H1406.32V70H1381.52V42ZM1416.58 42H1441.39V70H1416.58V42ZM1451.65 42H1476.45V70H1451.65V42ZM1486.71 42H1511.52V70H1486.71V42ZM1521.78 42H1546.58V70H1521.78V42ZM1556.84 42H1581.65V70H1556.84V42ZM1591.91 42H1616.71V70H1591.91V42ZM1626.97 42H1651.78V70H1626.97V42ZM1101 78H1125.8V106H1101V78ZM1136.06 78H1160.87V106H1136.06V78ZM1171.13 78H1195.93V106H1171.13V78ZM1206.19 78H1231V106H1206.19V78ZM1241.26 78H1266.06V106H1241.26V78ZM1276.32 78H1301.13V106H1276.32V78ZM1311.39 78H1336.19V106H1311.39V78ZM1346.45 78H1371.26V106H1346.45V78ZM1381.52 78H1406.32V106H1381.52V78ZM1416.58 78H1441.39V106H1416.58V78ZM1451.65 78H1476.45V106H1451.65V78ZM1486.71 78H1511.52V106H1486.71V78ZM1521.78 78H1546.58V106H1521.78V78ZM1556.84 78H1581.65V106H1556.84V78ZM1591.91 78H1616.71V106H1591.91V78ZM1626.97 78H1651.78V106H1626.97V78ZM1773.84 46H1798.64V74H1773.84V46ZM1808.91 46H1833.71V74H1808.91V46ZM1843.97 46H1868.77V74H1843.97V46ZM1879.04 46H1903.84V74H1879.04V46ZM1914.1 46H1938.9V74H1914.1V46ZM1949.17 46H1973.97V74H1949.17V46ZM1984.23 46H2009.03V74H1984.23V46ZM2019.3 46H2044.1V74H2019.3V46ZM2054.36 46H2079.16V74H2054.36V46ZM2089.43 46H2114.23V74H2089.43V46ZM2124.49 46H2149.29V74H2124.49V46ZM2159.56 46H2184.36V74H2159.56V46ZM2194.62 46H2219.42V74H2194.62V46ZM2229.69 46H2254.49V74H2229.69V46ZM2264.75 46H2289.55V74H2264.75V46ZM1738.78 82H1763.58V110H1738.78V82ZM1773.84 82H1798.64V110H1773.84V82ZM1808.91 82H1833.71V110H1808.91V82ZM1843.97 82H1868.77V110H1843.97V82ZM1879.04 82H1903.84V110H1879.04V82ZM1914.1 82H1938.9V110H1914.1V82ZM1949.17 82H1973.97V110H1949.17V82ZM1984.23 82H2009.03V110H1984.23V82ZM2019.3 82H2044.1V110H2019.3V82ZM2054.36 82H2079.16V110H2054.36V82ZM2089.43 82H2114.23V110H2089.43V82ZM2124.49 82H2149.29V110H2124.49V82ZM2159.56 82H2184.36V110H2159.56V82ZM2194.62 82H2219.42V110H2194.62V82ZM2229.69 82H2254.49V110H2229.69V82ZM2264.75 82H2289.55V110H2264.75V82ZM498.289 152H523.091V180H498.289V152ZM533.354 152H558.156V180H533.354V152ZM568.418 152H593.22V180H568.418V152ZM603.483 152H628.285V180H603.483V152ZM638.548 152H663.35V180H638.548V152ZM673.613 152H698.415V180H673.613V152ZM708.678 152H733.48V180H708.678V152ZM743.743 152H768.545V180H743.743V152ZM778.808 152H803.61V180H778.808V152ZM813.873 152H838.675V180H813.873V152ZM848.938 152H873.74V180H848.938V152ZM884.003 152H908.805V180H884.003V152ZM919.068 152H943.87V180H919.068V152ZM954.133 152H978.935V180H954.133V152ZM989.198 152H1014V180H989.198V152ZM463.224 188H488.026V216H463.224V188ZM498.289 188H523.091V216H498.289V188ZM533.354 188H558.156V216H533.354V188ZM568.418 188H593.22V216H568.418V188ZM603.483 188H628.285V216H603.483V188ZM638.548 188H663.35V216H638.548V188ZM673.613 188H698.415V216H673.613V188ZM708.678 188H733.48V216H708.678V188ZM743.743 188H768.545V216H743.743V188ZM778.808 188H803.61V216H778.808V188ZM813.873 188H838.675V216H813.873V188ZM848.938 188H873.74V216H848.938V188ZM884.003 188H908.805V216H884.003V188ZM919.068 188H943.87V216H919.068V188ZM954.133 188H978.935V216H954.133V188ZM989.198 188H1014V216H989.198V188ZM1136.06 156H1160.87V184H1136.06V156ZM1171.13 156H1195.93V184H1171.13V156ZM1206.19 156H1231V184H1206.19V156ZM1241.26 156H1266.06V184H1241.26V156ZM1276.32 156H1301.13V184H1276.32V156ZM1311.39 156H1336.19V184H1311.39V156ZM1346.45 156H1371.26V184H1346.45V156ZM1381.52 156H1406.32V184H1381.52V156ZM1416.58 156H1441.39V184H1416.58V156ZM1451.65 156H1476.45V184H1451.65V156ZM1486.71 156H1511.52V184H1486.71V156ZM1521.78 156H1546.58V184H1521.78V156ZM1556.84 156H1581.65V184H1556.84V156ZM1591.91 156H1616.71V184H1591.91V156ZM1626.97 156H1651.78V184H1626.97V156ZM1101 192H1125.8V220H1101V192ZM1136.06 192H1160.87V220H1136.06V192ZM1171.13 192H1195.93V220H1171.13V192ZM1206.19 192H1231V220H1206.19V192ZM1241.26 192H1266.06V220H1241.26V192ZM1276.32 192H1301.13V220H1276.32V192ZM1311.39 192H1336.19V220H1311.39V192ZM1346.45 192H1371.26V220H1346.45V192ZM1381.52 192H1406.32V220H1381.52V192ZM1416.58 192H1441.39V220H1416.58V192ZM1451.65 192H1476.45V220H1451.65V192ZM1486.71 192H1511.52V220H1486.71V192ZM1521.78 192H1546.58V220H1521.78V192ZM1556.84 192H1581.65V220H1556.84V192ZM1591.91 192H1616.71V220H1591.91V192ZM1626.97 192H1651.78V220H1626.97V192ZM1773.84 160H1798.64V188H1773.84V160ZM1808.91 160H1833.71V188H1808.91V160ZM1843.97 160H1868.77V188H1843.97V160ZM1879.04 160H1903.84V188H1879.04V160ZM1914.1 160H1938.9V188H1914.1V160ZM1949.17 160H1973.97V188H1949.17V160ZM1984.23 160H2009.03V188H1984.23V160ZM2019.3 160H2044.1V188H2019.3V160ZM2054.36 160H2079.16V188H2054.36V160ZM2089.43 160H2114.23V188H2089.43V160ZM2124.49 160H2149.29V188H2124.49V160ZM2159.56 160H2184.36V188H2159.56V160ZM2194.62 160H2219.42V188H2194.62V160ZM2229.69 160H2254.49V188H2229.69V160ZM2264.75 160H2289.55V188H2264.75V160ZM1738.78 196H1763.58V224H1738.78V196ZM1773.84 196H1798.64V224H1773.84V196ZM1808.91 196H1833.71V224H1808.91V196ZM1843.97 196H1868.77V224H1843.97V196ZM1879.04 196H1903.84V224H1879.04V196ZM1914.1 196H1938.9V224H1914.1V196ZM1949.17 196H1973.97V224H1949.17V196ZM1984.23 196H2009.03V224H1984.23V196ZM2019.3 196H2044.1V224H2019.3V196ZM2054.36 196H2079.16V224H2054.36V196ZM2089.43 196H2114.23V224H2089.43V196ZM2124.49 196H2149.29V224H2124.49V196ZM2159.56 196H2184.36V224H2159.56V196ZM2194.62 196H2219.42V224H2194.62V196ZM2229.69 196H2254.49V224H2229.69V196ZM2264.75 196H2289.55V224H2264.75V196ZM498.289 266H523.091V294H498.289V266ZM533.354 266H558.156V294H533.354V266ZM568.418 266H593.22V294H568.418V266ZM603.483 266H628.285V294H603.483V266ZM638.548 266H663.35V294H638.548V266ZM673.613 266H698.415V294H673.613V266ZM708.678 266H733.48V294H708.678V266ZM743.743 266H768.545V294H743.743V266ZM778.808 266H803.61V294H778.808V266ZM813.873 266H838.675V294H813.873V266ZM848.938 266H873.74V294H848.938V266ZM884.003 266H908.805V294H884.003V266ZM919.068 266H943.87V294H919.068V266ZM954.133 266H978.935V294H954.133V266ZM989.198 266H1014V294H989.198V266ZM463.224 302H488.026V330H463.224V302ZM498.289 302H523.091V330H498.289V302ZM533.354 302H558.156V330H533.354V302ZM568.418 302H593.22V330H568.418V302ZM603.483 302H628.285V330H603.483V302ZM638.548 302H663.35V330H638.548V302ZM673.613 302H698.415V330H673.613V302ZM708.678 302H733.48V330H708.678V302ZM743.743 302H768.545V330H743.743V302ZM778.808 302H803.61V330H778.808V302ZM813.873 302H838.675V330H813.873V302ZM848.938 302H873.74V330H848.938V302ZM884.003 302H908.805V330H884.003V302ZM919.068 302H943.87V330H919.068V302ZM954.133 302H978.935V330H954.133V302ZM989.198 302H1014V330H989.198V302ZM1136.06 270H1160.87V298H1136.06V270ZM1171.13 270H1195.93V298H1171.13V270ZM1206.19 270H1231V298H1206.19V270ZM1241.26 270H1266.06V298H1241.26V270ZM1276.32 270H1301.13V298H1276.32V270ZM1311.39 270H1336.19V298H1311.39V270ZM1346.45 270H1371.26V298H1346.45V270ZM1381.52 270H1406.32V298H1381.52V270ZM1416.58 270H1441.39V298H1416.58V270ZM1451.65 270H1476.45V298H1451.65V270ZM1486.71 270H1511.52V298H1486.71V270ZM1521.78 270H1546.58V298H1521.78V270ZM1556.84 270H1581.65V298H1556.84V270ZM1591.91 270H1616.71V298H1591.91V270ZM1626.97 270H1651.78V298H1626.97V270ZM1101 306H1125.8V334H1101V306ZM1136.06 306H1160.87V334H1136.06V306ZM1171.13 306H1195.93V334H1171.13V306ZM1206.19 306H1231V334H1206.19V306ZM1241.26 306H1266.06V334H1241.26V306ZM1276.32 306H1301.13V334H1276.32V306ZM1311.39 306H1336.19V334H1311.39V306ZM1346.45 306H1371.26V334H1346.45V306ZM1381.52 306H1406.32V334H1381.52V306ZM1416.58 306H1441.39V334H1416.58V306ZM1451.65 306H1476.45V334H1451.65V306ZM1486.71 306H1511.52V334H1486.71V306ZM1521.78 306H1546.58V334H1521.78V306ZM1556.84 306H1581.65V334H1556.84V306ZM1591.91 306H1616.71V334H1591.91V306ZM1626.97 306H1651.78V334H1626.97V306ZM1773.84 274H1798.64V302H1773.84V274ZM1808.91 274H1833.71V302H1808.91V274ZM1843.97 274H1868.77V302H1843.97V274ZM1879.04 274H1903.84V302H1879.04V274ZM1914.1 274H1938.9V302H1914.1V274ZM1949.17 274H1973.97V302H1949.17V274ZM1984.23 274H2009.03V302H1984.23V274ZM2019.3 274H2044.1V302H2019.3V274ZM2054.36 274H2079.16V302H2054.36V274ZM2089.43 274H2114.23V302H2089.43V274ZM2124.49 274H2149.29V302H2124.49V274ZM2159.56 274H2184.36V302H2159.56V274ZM2194.62 274H2219.42V302H2194.62V274ZM2229.69 274H2254.49V302H2229.69V274ZM2264.75 274H2289.55V302H2264.75V274ZM1738.78 310H1763.58V338H1738.78V310ZM1773.84 310H1798.64V338H1773.84V310ZM1808.91 310H1833.71V338H1808.91V310ZM1843.97 310H1868.77V338H1843.97V310ZM1879.04 310H1903.84V338H1879.04V310ZM1914.1 310H1938.9V338H1914.1V310ZM1949.17 310H1973.97V338H1949.17V310ZM1984.23 310H2009.03V338H1984.23V310ZM2019.3 310H2044.1V338H2019.3V310ZM2054.36 310H2079.16V338H2054.36V310ZM2089.43 310H2114.23V338H2089.43V310ZM2124.49 310H2149.29V338H2124.49V310ZM2159.56 310H2184.36V338H2159.56V310ZM2194.62 310H2219.42V338H2194.62V310ZM2229.69 310H2254.49V338H2229.69V310ZM2264.75 310H2289.55V338H2264.75V310ZM105.816 101.153L236.673 53.7373L271.193 92.6746L140.336 140.091L105.816 101.153ZM104.168 102.829L136.821 140.66L69.8484 140.052L104.168 102.829Z" stroke="black"/>
</svg>