<svg width="535" height="201" viewBox="0 0 535 201" fill="none" xmlns="http://www.w3.org/2000/svg">
<path d="M8.70847 174.641C6.56485 174.641 4.5552 174.244 2.67953 173.449C0.893176 172.574 0 171.341 0 169.751V92.3446C0 90.7543 0.803859 89.5616 2.41158 88.7664C4.01929 87.8918 5.76099 87.4545 7.63666 87.4545H54.3944C56.3594 87.4545 57.7439 88.1701 58.5477 89.6013C59.4409 91.0326 59.8875 92.5433 59.8875 94.1336C59.8875 96.0419 59.3962 97.672 58.4137 99.0237C57.5206 100.375 56.1808 101.051 54.3944 101.051H17.4169V124.905H37.9153C39.7017 124.905 41.0415 125.542 41.9346 126.814C42.9171 128.086 43.4084 129.517 43.4084 131.107C43.4084 132.459 42.9618 133.811 42.0686 135.163C41.2647 136.435 39.8803 137.071 37.9153 137.071H17.4169V169.751C17.4169 171.341 16.5238 172.574 14.7374 173.449C12.9511 174.244 10.9414 174.641 8.70847 174.641Z" fill="white"/>
<path d="M76.6063 174.641C74.1054 174.641 72.0511 174.124 70.4434 173.091C68.8356 172.057 68.0318 170.904 68.0318 169.632V89.7206C68.0318 88.2894 68.8356 87.1364 70.4434 86.2618C72.0511 85.3871 74.1054 84.9498 76.6063 84.9498C79.0178 84.9498 81.0722 85.3871 82.7692 86.2618C84.4662 87.1364 85.3147 88.2894 85.3147 89.7206V169.632C85.3147 170.904 84.4662 172.057 82.7692 173.091C81.0722 174.124 79.0178 174.641 76.6063 174.641Z" fill="white"/>
<path d="M101.803 201C99.5703 201 97.6946 200.602 96.1762 199.807C94.6578 199.092 93.8986 197.303 93.8986 194.44C93.8986 192.77 94.2113 191.26 94.8365 189.908C95.551 188.636 96.7122 188 98.3199 188C99.749 188 101.491 187.721 103.545 187.165C105.599 186.688 107.654 185.813 109.708 184.541C111.762 183.268 113.504 181.479 114.933 179.174C116.362 176.947 117.211 174.045 117.479 170.467L94.4346 126.575C94.0773 125.86 93.8986 125.184 93.8986 124.548C93.8986 123.196 94.5239 121.963 95.7743 120.85C97.1141 119.737 98.6771 118.862 100.463 118.226C102.25 117.511 103.902 117.153 105.421 117.153C106.492 117.153 107.475 117.352 108.368 117.749C109.351 118.147 110.02 118.823 110.378 119.777L126.455 155.439L139.317 119.777C139.763 118.823 140.433 118.147 141.326 117.749C142.219 117.352 143.113 117.153 144.006 117.153C145.346 117.153 146.953 117.511 148.829 118.226C150.705 118.862 152.312 119.777 153.652 120.969C155.081 122.083 155.796 123.355 155.796 124.786C155.796 125.502 155.662 126.098 155.394 126.575L135.833 171.063C134.226 174.641 132.663 178.18 131.144 181.678C129.626 185.256 127.705 188.477 125.383 191.339C123.15 194.281 120.158 196.627 116.407 198.376C112.655 200.125 107.788 201 101.803 201Z" fill="white"/>
<path d="M166.652 174.641C165.044 174.641 163.392 174.363 161.695 173.806C159.998 173.25 158.569 172.494 157.408 171.54C156.247 170.586 155.666 169.473 155.666 168.201C155.666 167.962 155.711 167.564 155.8 167.008L181.657 91.9867C182.283 90.2374 183.667 88.9255 185.811 88.0508C188.044 87.1762 190.411 86.7388 192.911 86.7388C195.412 86.7388 197.735 87.1762 199.878 88.0508C202.111 88.9255 203.54 90.2374 204.165 91.9867L230.023 167.008C230.202 167.564 230.291 167.962 230.291 168.201C230.291 169.473 229.666 170.586 228.415 171.54C227.254 172.494 225.825 173.25 224.128 173.806C222.431 174.363 220.779 174.641 219.171 174.641C217.742 174.641 216.491 174.403 215.419 173.926C214.437 173.449 213.767 172.653 213.41 171.54L208.319 155.677H177.504L172.547 171.54C172.19 172.653 171.475 173.449 170.403 173.926C169.332 174.403 168.081 174.641 166.652 174.641ZM181.255 143.512H204.567L192.911 106.896L181.255 143.512Z" fill="white"/>
<path d="M257.842 175.953C256.413 175.953 255.028 175.754 253.689 175.357C252.438 174.959 251.59 174.204 251.143 173.091L230.377 125.979C230.019 125.025 229.841 124.269 229.841 123.713C229.841 122.441 230.466 121.367 231.716 120.492C232.967 119.538 234.441 118.783 236.138 118.226C237.924 117.67 239.532 117.391 240.961 117.391C242.122 117.391 243.149 117.59 244.042 117.988C245.025 118.385 245.695 119.021 246.052 119.896L259.45 153.769L269.498 124.309C269.944 122.957 270.704 122.122 271.775 121.804C272.847 121.407 274.053 121.208 275.393 121.208C276.643 121.208 277.804 121.407 278.876 121.804C280.037 122.122 280.841 122.957 281.288 124.309L291.202 153.888L304.734 119.896C305.359 118.226 306.967 117.391 309.557 117.391C310.986 117.391 312.594 117.67 314.38 118.226C316.166 118.783 317.685 119.538 318.935 120.492C320.186 121.447 320.811 122.56 320.811 123.832C320.811 124.627 320.632 125.343 320.275 125.979L299.509 173.21C299.062 174.244 298.213 174.959 296.963 175.357C295.713 175.754 294.328 175.953 292.81 175.953C291.113 175.953 289.594 175.715 288.254 175.238C286.915 174.76 286.066 174.085 285.709 173.21L275.393 147.209L265.077 173.091C264.719 174.045 263.826 174.76 262.397 175.238C261.057 175.715 259.539 175.953 257.842 175.953Z" fill="white"/>
<path d="M342.164 175.715C337.431 175.715 333.322 174.442 329.838 171.898C326.444 169.274 324.747 165.259 324.747 159.852C324.747 155.319 326.042 151.781 328.633 149.237C331.312 146.692 334.974 144.903 339.619 143.869C344.353 142.836 349.801 142.319 355.964 142.319H361.457V140.768C361.457 139.019 361.055 137.31 360.251 135.64C359.537 133.97 358.331 132.578 356.634 131.465C354.937 130.352 352.615 129.796 349.667 129.796C346.273 129.796 343.638 130.114 341.762 130.75C339.976 131.306 338.547 131.903 337.475 132.539C336.493 133.175 335.465 133.493 334.394 133.493C332.518 133.493 331.044 132.658 329.972 130.988C328.99 129.318 328.499 127.609 328.499 125.86C328.499 124.19 329.615 122.719 331.848 121.447C334.081 120.174 336.85 119.18 340.155 118.465C343.549 117.67 346.809 117.272 349.935 117.272C356.902 117.272 362.484 118.385 366.682 120.612C370.88 122.838 373.917 125.74 375.792 129.318C377.757 132.817 378.74 136.554 378.74 140.53V169.632C378.74 171.063 377.936 172.256 376.328 173.21C374.721 174.164 372.711 174.641 370.299 174.641C368.066 174.641 366.191 174.164 364.672 173.21C363.243 172.256 362.529 171.063 362.529 169.632V166.292C360.117 168.757 357.259 170.944 353.954 172.852C350.739 174.76 346.809 175.715 342.164 175.715ZM349.131 164.265C351.007 164.265 352.882 163.748 354.758 162.714C356.634 161.601 358.197 160.17 359.447 158.42C360.787 156.671 361.457 154.803 361.457 152.815V150.31H359.447C356.41 150.31 353.552 150.469 350.873 150.787C348.283 151.105 346.139 151.821 344.442 152.934C342.834 153.968 342.03 155.598 342.03 157.824C342.03 160.05 342.7 161.68 344.04 162.714C345.38 163.748 347.077 164.265 349.131 164.265Z" fill="white"/>
<path d="M392.652 201C390.42 201 388.544 200.602 387.025 199.807C385.507 199.092 384.748 197.303 384.748 194.44C384.748 192.77 385.061 191.26 385.686 189.908C386.4 188.636 387.561 188 389.169 188C390.598 188 392.34 187.721 394.394 187.165C396.449 186.688 398.503 185.813 400.557 184.541C402.611 183.268 404.353 181.479 405.782 179.174C407.211 176.947 408.06 174.045 408.328 170.467L385.284 126.575C384.927 125.86 384.748 125.184 384.748 124.548C384.748 123.196 385.373 121.963 386.624 120.85C387.963 119.737 389.526 118.862 391.313 118.226C393.099 117.511 394.751 117.153 396.27 117.153C397.342 117.153 398.324 117.352 399.217 117.749C400.2 118.147 400.87 118.823 401.227 119.777L417.304 155.439L430.166 119.777C430.612 118.823 431.282 118.147 432.176 117.749C433.069 117.352 433.962 117.153 434.855 117.153C436.195 117.153 437.803 117.511 439.678 118.226C441.554 118.862 443.162 119.777 444.501 120.969C445.93 122.083 446.645 123.355 446.645 124.786C446.645 125.502 446.511 126.098 446.243 126.575L426.682 171.063C425.075 174.641 423.512 178.18 421.993 181.678C420.475 185.256 418.555 188.477 416.232 191.339C413.999 194.281 411.007 196.627 407.256 198.376C403.505 200.125 398.637 201 392.652 201Z" fill="white"/>
<path d="M521.201 1.91059C527.597 9.46971 503.024 37.271 466.314 64.0065C429.605 90.7421 394.661 106.288 388.265 98.7285C381.868 91.1694 406.442 63.3681 443.151 36.6325C479.86 9.89702 514.804 -5.64853 521.201 1.91059Z" fill="white"/>
<path d="M534.457 54.0023C538.692 61.2463 517.676 79.4208 487.517 94.5962C457.357 109.772 429.475 116.201 425.24 108.957C421.005 101.713 442.021 83.539 472.181 68.3636C502.34 53.1881 530.223 46.7584 534.457 54.0023Z" fill="white"/>
<path d="M532.95 105.066C534.129 110.664 516.765 118.39 494.165 122.323C471.565 126.256 452.288 124.907 451.108 119.309C449.929 113.712 467.294 105.985 489.894 102.052C512.493 98.119 531.77 99.4683 532.95 105.066Z" fill="white"/>
</svg>
