<svg width="1466" height="363" viewBox="0 0 1466 363" fill="none" xmlns="http://www.w3.org/2000/svg">
<path id="boeing_737" d="M285.534 1.12577V1H1465V362H285.534V361.874C282.106 361.958 278.661 362 275.202 362C123.764 362 1 281.187 1 181.5C1 81.8126 123.764 1 275.202 1C278.661 1 282.106 1.04217 285.534 1.12577Z" fill="#C4C4C4"/>
<path d="M66.1344 144.454H131.269V216.969H66.1344V144.454Z" fill="#C4C4C4"/>
<path d="M132.311 218.546L255.989 265.689L223.611 304.698L99.9334 257.555L132.311 218.546Z" fill="#C4C4C4"/>
<path d="M129.391 218.509L97.5019 255.925L65.6348 218.948L129.391 218.509Z" fill="#C4C4C4"/>
<path d="M464.702 38H484.253V66H464.702V38Z" fill="#C4C4C4"/>
<path d="M492.344 38H511.895V66H492.344V38Z" fill="#C4C4C4"/>
<path d="M519.986 38H539.537V66H519.986V38Z" fill="#C4C4C4"/>
<path d="M547.627 38H567.179V66H547.627V38Z" fill="#C4C4C4"/>
<path d="M575.269 38H594.821V66H575.269V38Z" fill="#C4C4C4"/>
<path d="M602.911 38H622.462V66H602.911V38Z" fill="#C4C4C4"/>
<path d="M630.553 38H650.104V66H630.553V38Z" fill="#C4C4C4"/>
<path d="M658.195 38H677.746V66H658.195V38Z" fill="#C4C4C4"/>
<path d="M685.836 38H705.388V66H685.836V38Z" fill="#C4C4C4"/>
<path d="M713.478 38H733.03V66H713.478V38Z" fill="#C4C4C4"/>
<path d="M741.12 38H760.671V66H741.12V38Z" fill="#C4C4C4"/>
<path d="M768.762 38H788.313V66H768.762V38Z" fill="#C4C4C4"/>
<path d="M796.404 38H815.955V66H796.404V38Z" fill="#C4C4C4"/>
<path d="M824.045 38H843.597V66H824.045V38Z" fill="#C4C4C4"/>
<path d="M851.687 38H871.239V66H851.687V38Z" fill="#C4C4C4"/>
<path d="M437.06 74H456.612V102H437.06V74Z" fill="#C4C4C4"/>
<path d="M464.702 74H484.253V102H464.702V74Z" fill="#C4C4C4"/>
<path d="M492.344 74H511.895V102H492.344V74Z" fill="#C4C4C4"/>
<path d="M519.986 74H539.537V102H519.986V74Z" fill="#C4C4C4"/>
<path d="M547.627 74H567.179V102H547.627V74Z" fill="#C4C4C4"/>
<path d="M575.269 74H594.821V102H575.269V74Z" fill="#C4C4C4"/>
<path d="M602.911 74H622.462V102H602.911V74Z" fill="#C4C4C4"/>
<path d="M630.553 74H650.104V102H630.553V74Z" fill="#C4C4C4"/>
<path d="M658.195 74H677.746V102H658.195V74Z" fill="#C4C4C4"/>
<path d="M685.836 74H705.388V102H685.836V74Z" fill="#C4C4C4"/>
<path d="M713.478 74H733.03V102H713.478V74Z" fill="#C4C4C4"/>
<path d="M741.12 74H760.671V102H741.12V74Z" fill="#C4C4C4"/>
<path d="M768.762 74H788.313V102H768.762V74Z" fill="#C4C4C4"/>
<path d="M796.404 74H815.955V102H796.404V74Z" fill="#C4C4C4"/>
<path d="M824.045 74H843.597V102H824.045V74Z" fill="#C4C4C4"/>
<path d="M851.687 74H871.239V102H851.687V74Z" fill="#C4C4C4"/>
<path d="M967.463 42H987.015V70H967.463V42Z" fill="#C4C4C4"/>
<path d="M995.105 42H1014.66V70H995.105V42Z" fill="#C4C4C4"/>
<path d="M1022.75 42H1042.3V70H1022.75V42Z" fill="#C4C4C4"/>
<path d="M1050.39 42H1069.94V70H1050.39V42Z" fill="#C4C4C4"/>
<path d="M1078.03 42H1097.58V70H1078.03V42Z" fill="#C4C4C4"/>
<path d="M1105.67 42H1125.22V70H1105.67V42Z" fill="#C4C4C4"/>
<path d="M1133.31 42H1152.87V70H1133.31V42Z" fill="#C4C4C4"/>
<path d="M1160.96 42H1180.51V70H1160.96V42Z" fill="#C4C4C4"/>
<path d="M1188.6 42H1208.15V70H1188.6V42Z" fill="#C4C4C4"/>
<path d="M1216.24 42H1235.79V70H1216.24V42Z" fill="#C4C4C4"/>
<path d="M1243.88 42H1263.43V70H1243.88V42Z" fill="#C4C4C4"/>
<path d="M1271.52 42H1291.07V70H1271.52V42Z" fill="#C4C4C4"/>
<path d="M1299.16 42H1318.72V70H1299.16V42Z" fill="#C4C4C4"/>
<path d="M1326.81 42H1346.36V70H1326.81V42Z" fill="#C4C4C4"/>
<path d="M1354.45 42H1374V70H1354.45V42Z" fill="#C4C4C4"/>
<path d="M939.821 78H959.373V106H939.821V78Z" fill="#C4C4C4"/>
<path d="M967.463 78H987.015V106H967.463V78Z" fill="#C4C4C4"/>
<path d="M995.105 78H1014.66V106H995.105V78Z" fill="#C4C4C4"/>
<path d="M1022.75 78H1042.3V106H1022.75V78Z" fill="#C4C4C4"/>
<path d="M1050.39 78H1069.94V106H1050.39V78Z" fill="#C4C4C4"/>
<path d="M1078.03 78H1097.58V106H1078.03V78Z" fill="#C4C4C4"/>
<path d="M1105.67 78H1125.22V106H1105.67V78Z" fill="#C4C4C4"/>
<path d="M1133.31 78H1152.87V106H1133.31V78Z" fill="#C4C4C4"/>
<path d="M1160.96 78H1180.51V106H1160.96V78Z" fill="#C4C4C4"/>
<path d="M1188.6 78H1208.15V106H1188.6V78Z" fill="#C4C4C4"/>
<path d="M1216.24 78H1235.79V106H1216.24V78Z" fill="#C4C4C4"/>
<path d="M1243.88 78H1263.43V106H1243.88V78Z" fill="#C4C4C4"/>
<path d="M1271.52 78H1291.07V106H1271.52V78Z" fill="#C4C4C4"/>
<path d="M1299.16 78H1318.72V106H1299.16V78Z" fill="#C4C4C4"/>
<path d="M1326.81 78H1346.36V106H1326.81V78Z" fill="#C4C4C4"/>
<path d="M1354.45 78H1374V106H1354.45V78Z" fill="#C4C4C4"/>
<path d="M464.702 152H484.253V180H464.702V152Z" fill="#C4C4C4"/>
<path d="M492.344 152H511.895V180H492.344V152Z" fill="#C4C4C4"/>
<path d="M519.986 152H539.537V180H519.986V152Z" fill="#C4C4C4"/>
<path d="M547.627 152H567.179V180H547.627V152Z" fill="#C4C4C4"/>
<path d="M575.269 152H594.821V180H575.269V152Z" fill="#C4C4C4"/>
<path d="M602.911 152H622.462V180H602.911V152Z" fill="#C4C4C4"/>
<path d="M630.553 152H650.104V180H630.553V152Z" fill="#C4C4C4"/>
<path d="M658.195 152H677.746V180H658.195V152Z" fill="#C4C4C4"/>
<path d="M685.836 152H705.388V180H685.836V152Z" fill="#C4C4C4"/>
<path d="M713.478 152H733.03V180H713.478V152Z" fill="#C4C4C4"/>
<path d="M741.12 152H760.671V180H741.12V152Z" fill="#C4C4C4"/>
<path d="M768.762 152H788.313V180H768.762V152Z" fill="#C4C4C4"/>
<path d="M796.404 152H815.955V180H796.404V152Z" fill="#C4C4C4"/>
<path d="M824.045 152H843.597V180H824.045V152Z" fill="#C4C4C4"/>
<path d="M851.687 152H871.239V180H851.687V152Z" fill="#C4C4C4"/>
<path d="M437.06 188H456.612V216H437.06V188Z" fill="#C4C4C4"/>
<path d="M464.702 188H484.253V216H464.702V188Z" fill="#C4C4C4"/>
<path d="M492.344 188H511.895V216H492.344V188Z" fill="#C4C4C4"/>
<path d="M519.986 188H539.537V216H519.986V188Z" fill="#C4C4C4"/>
<path d="M547.627 188H567.179V216H547.627V188Z" fill="#C4C4C4"/>
<path d="M575.269 188H594.821V216H575.269V188Z" fill="#C4C4C4"/>
<path d="M602.911 188H622.462V216H602.911V188Z" fill="#C4C4C4"/>
<path d="M630.553 188H650.104V216H630.553V188Z" fill="#C4C4C4"/>
<path d="M658.195 188H677.746V216H658.195V188Z" fill="#C4C4C4"/>
<path d="M685.836 188H705.388V216H685.836V188Z" fill="#C4C4C4"/>
<path d="M713.478 188H733.03V216H713.478V188Z" fill="#C4C4C4"/>
<path d="M741.12 188H760.671V216H741.12V188Z" fill="#C4C4C4"/>
<path d="M768.762 188H788.313V216H768.762V188Z" fill="#C4C4C4"/>
<path d="M796.404 188H815.955V216H796.404V188Z" fill="#C4C4C4"/>
<path d="M824.045 188H843.597V216H824.045V188Z" fill="#C4C4C4"/>
<path d="M851.687 188H871.239V216H851.687V188Z" fill="#C4C4C4"/>
<path d="M967.463 156H987.015V184H967.463V156Z" fill="#C4C4C4"/>
<path d="M995.105 156H1014.66V184H995.105V156Z" fill="#C4C4C4"/>
<path d="M1022.75 156H1042.3V184H1022.75V156Z" fill="#C4C4C4"/>
<path d="M1050.39 156H1069.94V184H1050.39V156Z" fill="#C4C4C4"/>
<path d="M1078.03 156H1097.58V184H1078.03V156Z" fill="#C4C4C4"/>
<path d="M1105.67 156H1125.22V184H1105.67V156Z" fill="#C4C4C4"/>
<path d="M1133.31 156H1152.87V184H1133.31V156Z" fill="#C4C4C4"/>
<path d="M1160.96 156H1180.51V184H1160.96V156Z" fill="#C4C4C4"/>
<path d="M1188.6 156H1208.15V184H1188.6V156Z" fill="#C4C4C4"/>
<path d="M1216.24 156H1235.79V184H1216.24V156Z" fill="#C4C4C4"/>
<path d="M1243.88 156H1263.43V184H1243.88V156Z" fill="#C4C4C4"/>
<path d="M1271.52 156H1291.07V184H1271.52V156Z" fill="#C4C4C4"/>
<path d="M1299.16 156H1318.72V184H1299.16V156Z" fill="#C4C4C4"/>
<path d="M1326.81 156H1346.36V184H1326.81V156Z" fill="#C4C4C4"/>
<path d="M1354.45 156H1374V184H1354.45V156Z" fill="#C4C4C4"/>
<path d="M939.821 192H959.373V220H939.821V192Z" fill="#C4C4C4"/>
<path d="M967.463 192H987.015V220H967.463V192Z" fill="#C4C4C4"/>
<path d="M995.105 192H1014.66V220H995.105V192Z" fill="#C4C4C4"/>
<path d="M1022.75 192H1042.3V220H1022.75V192Z" fill="#C4C4C4"/>
<path d="M1050.39 192H1069.94V220H1050.39V192Z" fill="#C4C4C4"/>
<path d="M1078.03 192H1097.58V220H1078.03V192Z" fill="#C4C4C4"/>
<path d="M1105.67 192H1125.22V220H1105.67V192Z" fill="#C4C4C4"/>
<path d="M1133.31 192H1152.87V220H1133.31V192Z" fill="#C4C4C4"/>
<path d="M1160.96 192H1180.51V220H1160.96V192Z" fill="#C4C4C4"/>
<path d="M1188.6 192H1208.15V220H1188.6V192Z" fill="#C4C4C4"/>
<path d="M1216.24 192H1235.79V220H1216.24V192Z" fill="#C4C4C4"/>
<path d="M1243.88 192H1263.43V220H1243.88V192Z" fill="#C4C4C4"/>
<path d="M1271.52 192H1291.07V220H1271.52V192Z" fill="#C4C4C4"/>
<path d="M1299.16 192H1318.72V220H1299.16V192Z" fill="#C4C4C4"/>
<path d="M1326.81 192H1346.36V220H1326.81V192Z" fill="#C4C4C4"/>
<path d="M1354.45 192H1374V220H1354.45V192Z" fill="#C4C4C4"/>
<path d="M464.702 266H484.253V294H464.702V266Z" fill="#C4C4C4"/>
<path d="M492.344 266H511.895V294H492.344V266Z" fill="#C4C4C4"/>
<path d="M519.986 266H539.537V294H519.986V266Z" fill="#C4C4C4"/>
<path d="M547.627 266H567.179V294H547.627V266Z" fill="#C4C4C4"/>
<path d="M575.269 266H594.821V294H575.269V266Z" fill="#C4C4C4"/>
<path d="M602.911 266H622.462V294H602.911V266Z" fill="#C4C4C4"/>
<path d="M630.553 266H650.104V294H630.553V266Z" fill="#C4C4C4"/>
<path d="M658.195 266H677.746V294H658.195V266Z" fill="#C4C4C4"/>
<path d="M685.836 266H705.388V294H685.836V266Z" fill="#C4C4C4"/>
<path d="M713.478 266H733.03V294H713.478V266Z" fill="#C4C4C4"/>
<path d="M741.12 266H760.671V294H741.12V266Z" fill="#C4C4C4"/>
<path d="M768.762 266H788.313V294H768.762V266Z" fill="#C4C4C4"/>
<path d="M796.404 266H815.955V294H796.404V266Z" fill="#C4C4C4"/>
<path d="M824.045 266H843.597V294H824.045V266Z" fill="#C4C4C4"/>
<path d="M851.687 266H871.239V294H851.687V266Z" fill="#C4C4C4"/>
<path d="M437.06 302H456.612V330H437.06V302Z" fill="#C4C4C4"/>
<path d="M464.702 302H484.253V330H464.702V302Z" fill="#C4C4C4"/>
<path d="M492.344 302H511.895V330H492.344V302Z" fill="#C4C4C4"/>
<path d="M519.986 302H539.537V330H519.986V302Z" fill="#C4C4C4"/>
<path d="M547.627 302H567.179V330H547.627V302Z" fill="#C4C4C4"/>
<path d="M575.269 302H594.821V330H575.269V302Z" fill="#C4C4C4"/>
<path d="M602.911 302H622.462V330H602.911V302Z" fill="#C4C4C4"/>
<path d="M630.553 302H650.104V330H630.553V302Z" fill="#C4C4C4"/>
<path d="M658.195 302H677.746V330H658.195V302Z" fill="#C4C4C4"/>
<path d="M685.836 302H705.388V330H685.836V302Z" fill="#C4C4C4"/>
<path d="M713.478 302H733.03V330H713.478V302Z" fill="#C4C4C4"/>
<path d="M741.12 302H760.671V330H741.12V302Z" fill="#C4C4C4"/>
<path d="M768.762 302H788.313V330H768.762V302Z" fill="#C4C4C4"/>
<path d="M796.404 302H815.955V330H796.404V302Z" fill="#C4C4C4"/>
<path d="M824.045 302H843.597V330H824.045V302Z" fill="#C4C4C4"/>
<path d="M851.687 302H871.239V330H851.687V302Z" fill="#C4C4C4"/>
<path d="M967.463 270H987.015V298H967.463V270Z" fill="#C4C4C4"/>
<path d="M995.105 270H1014.66V298H995.105V270Z" fill="#C4C4C4"/>
<path d="M1022.75 270H1042.3V298H1022.75V270Z" fill="#C4C4C4"/>
<path d="M1050.39 270H1069.94V298H1050.39V270Z" fill="#C4C4C4"/>
<path d="M1078.03 270H1097.58V298H1078.03V270Z" fill="#C4C4C4"/>
<path d="M1105.67 270H1125.22V298H1105.67V270Z" fill="#C4C4C4"/>
<path d="M1133.31 270H1152.87V298H1133.31V270Z" fill="#C4C4C4"/>
<path d="M1160.96 270H1180.51V298H1160.96V270Z" fill="#C4C4C4"/>
<path d="M1188.6 270H1208.15V298H1188.6V270Z" fill="#C4C4C4"/>
<path d="M1216.24 270H1235.79V298H1216.24V270Z" fill="#C4C4C4"/>
<path d="M1243.88 270H1263.43V298H1243.88V270Z" fill="#C4C4C4"/>
<path d="M1271.52 270H1291.07V298H1271.52V270Z" fill="#C4C4C4"/>
<path d="M1299.16 270H1318.72V298H1299.16V270Z" fill="#C4C4C4"/>
<path d="M1326.81 270H1346.36V298H1326.81V270Z" fill="#C4C4C4"/>
<path d="M1354.45 270H1374V298H1354.45V270Z" fill="#C4C4C4"/>
<path d="M939.821 306H959.373V334H939.821V306Z" fill="#C4C4C4"/>
<path d="M967.463 306H987.015V334H967.463V306Z" fill="#C4C4C4"/>
<path d="M995.105 306H1014.66V334H995.105V306Z" fill="#C4C4C4"/>
<path d="M1022.75 306H1042.3V334H1022.75V306Z" fill="#C4C4C4"/>
<path d="M1050.39 306H1069.94V334H1050.39V306Z" fill="#C4C4C4"/>
<path d="M1078.03 306H1097.58V334H1078.03V306Z" fill="#C4C4C4"/>
<path d="M1105.67 306H1125.22V334H1105.67V306Z" fill="#C4C4C4"/>
<path d="M1133.31 306H1152.87V334H1133.31V306Z" fill="#C4C4C4"/>
<path d="M1160.96 306H1180.51V334H1160.96V306Z" fill="#C4C4C4"/>
<path d="M1188.6 306H1208.15V334H1188.6V306Z" fill="#C4C4C4"/>
<path d="M1216.24 306H1235.79V334H1216.24V306Z" fill="#C4C4C4"/>
<path d="M1243.88 306H1263.43V334H1243.88V306Z" fill="#C4C4C4"/>
<path d="M1271.52 306H1291.07V334H1271.52V306Z" fill="#C4C4C4"/>
<path d="M1299.16 306H1318.72V334H1299.16V306Z" fill="#C4C4C4"/>
<path d="M1326.81 306H1346.36V334H1326.81V306Z" fill="#C4C4C4"/>
<path d="M1354.45 306H1374V334H1354.45V306Z" fill="#C4C4C4"/>
<path d="M99.8833 101.153L223.333 53.7373L255.899 92.6746L132.449 140.091L99.8833 101.153Z" fill="#C4C4C4"/>
<path d="M98.3285 102.829L129.133 140.66L65.9514 140.052L98.3285 102.829Z" fill="#C4C4C4"/>
<path d="M355.086 2.57642L355.086 362M285.534 1.12577V1H1465V362H285.534V361.874C282.106 361.958 278.661 362 275.202 362C123.764 362 1 281.187 1 181.5C1 81.8126 123.764 1 275.202 1C278.661 1 282.106 1.04217 285.534 1.12577ZM66.1344 144.454H131.269V216.969H66.1344V144.454ZM132.311 218.546L255.989 265.689L223.611 304.698L99.9334 257.555L132.311 218.546ZM129.391 218.509L97.5019 255.925L65.6348 218.948L129.391 218.509ZM464.702 38H484.253V66H464.702V38ZM492.344 38H511.895V66H492.344V38ZM519.986 38H539.537V66H519.986V38ZM547.627 38H567.179V66H547.627V38ZM575.269 38H594.821V66H575.269V38ZM602.911 38H622.462V66H602.911V38ZM630.553 38H650.104V66H630.553V38ZM658.195 38H677.746V66H658.195V38ZM685.836 38H705.388V66H685.836V38ZM713.478 38H733.03V66H713.478V38ZM741.12 38H760.671V66H741.12V38ZM768.762 38H788.313V66H768.762V38ZM796.404 38H815.955V66H796.404V38ZM824.045 38H843.597V66H824.045V38ZM851.687 38H871.239V66H851.687V38ZM437.06 74H456.612V102H437.06V74ZM464.702 74H484.253V102H464.702V74ZM492.344 74H511.895V102H492.344V74ZM519.986 74H539.537V102H519.986V74ZM547.627 74H567.179V102H547.627V74ZM575.269 74H594.821V102H575.269V74ZM602.911 74H622.462V102H602.911V74ZM630.553 74H650.104V102H630.553V74ZM658.195 74H677.746V102H658.195V74ZM685.836 74H705.388V102H685.836V74ZM713.478 74H733.03V102H713.478V74ZM741.12 74H760.671V102H741.12V74ZM768.762 74H788.313V102H768.762V74ZM796.404 74H815.955V102H796.404V74ZM824.045 74H843.597V102H824.045V74ZM851.687 74H871.239V102H851.687V74ZM967.463 42H987.015V70H967.463V42ZM995.105 42H1014.66V70H995.105V42ZM1022.75 42H1042.3V70H1022.75V42ZM1050.39 42H1069.94V70H1050.39V42ZM1078.03 42H1097.58V70H1078.03V42ZM1105.67 42H1125.22V70H1105.67V42ZM1133.31 42H1152.87V70H1133.31V42ZM1160.96 42H1180.51V70H1160.96V42ZM1188.6 42H1208.15V70H1188.6V42ZM1216.24 42H1235.79V70H1216.24V42ZM1243.88 42H1263.43V70H1243.88V42ZM1271.52 42H1291.07V70H1271.52V42ZM1299.16 42H1318.72V70H1299.16V42ZM1326.81 42H1346.36V70H1326.81V42ZM1354.45 42H1374V70H1354.45V42ZM939.821 78H959.373V106H939.821V78ZM967.463 78H987.015V106H967.463V78ZM995.105 78H1014.66V106H995.105V78ZM1022.75 78H1042.3V106H1022.75V78ZM1050.39 78H1069.94V106H1050.39V78ZM1078.03 78H1097.58V106H1078.03V78ZM1105.67 78H1125.22V106H1105.67V78ZM1133.31 78H1152.87V106H1133.31V78ZM1160.96 78H1180.51V106H1160.96V78ZM1188.6 78H1208.15V106H1188.6V78ZM1216.24 78H1235.79V106H1216.24V78ZM1243.88 78H1263.43V106H1243.88V78ZM1271.52 78H1291.07V106H1271.52V78ZM1299.16 78H1318.72V106H1299.16V78ZM1326.81 78H1346.36V106H1326.81V78ZM1354.45 78H1374V106H1354.45V78ZM464.702 152H484.253V180H464.702V152ZM492.344 152H511.895V180H492.344V152ZM519.986 152H539.537V180H519.986V152ZM547.627 152H567.179V180H547.627V152ZM575.269 152H594.821V180H575.269V152ZM602.911 152H622.462V180H602.911V152ZM630.553 152H650.104V180H630.553V152ZM658.195 152H677.746V180H658.195V152ZM685.836 152H705.388V180H685.836V152ZM713.478 152H733.03V180H713.478V152ZM741.12 152H760.671V180H741.12V152ZM768.762 152H788.313V180H768.762V152ZM796.404 152H815.955V180H796.404V152ZM824.045 152H843.597V180H824.045V152ZM851.687 152H871.239V180H851.687V152ZM437.06 188H456.612V216H437.06V188ZM464.702 188H484.253V216H464.702V188ZM492.344 188H511.895V216H492.344V188ZM519.986 188H539.537V216H519.986V188ZM547.627 188H567.179V216H547.627V188ZM575.269 188H594.821V216H575.269V188ZM602.911 188H622.462V216H602.911V188ZM630.553 188H650.104V216H630.553V188ZM658.195 188H677.746V216H658.195V188ZM685.836 188H705.388V216H685.836V188ZM713.478 188H733.03V216H713.478V188ZM741.12 188H760.671V216H741.12V188ZM768.762 188H788.313V216H768.762V188ZM796.404 188H815.955V216H796.404V188ZM824.045 188H843.597V216H824.045V188ZM851.687 188H871.239V216H851.687V188ZM967.463 156H987.015V184H967.463V156ZM995.105 156H1014.66V184H995.105V156ZM1022.75 156H1042.3V184H1022.75V156ZM1050.39 156H1069.94V184H1050.39V156ZM1078.03 156H1097.58V184H1078.03V156ZM1105.67 156H1125.22V184H1105.67V156ZM1133.31 156H1152.87V184H1133.31V156ZM1160.96 156H1180.51V184H1160.96V156ZM1188.6 156H1208.15V184H1188.6V156ZM1216.24 156H1235.79V184H1216.24V156ZM1243.88 156H1263.43V184H1243.88V156ZM1271.52 156H1291.07V184H1271.52V156ZM1299.16 156H1318.72V184H1299.16V156ZM1326.81 156H1346.36V184H1326.81V156ZM1354.45 156H1374V184H1354.45V156ZM939.821 192H959.373V220H939.821V192ZM967.463 192H987.015V220H967.463V192ZM995.105 192H1014.66V220H995.105V192ZM1022.75 192H1042.3V220H1022.75V192ZM1050.39 192H1069.94V220H1050.39V192ZM1078.03 192H1097.58V220H1078.03V192ZM1105.67 192H1125.22V220H1105.67V192ZM1133.31 192H1152.87V220H1133.31V192ZM1160.96 192H1180.51V220H1160.96V192ZM1188.6 192H1208.15V220H1188.6V192ZM1216.24 192H1235.79V220H1216.24V192ZM1243.88 192H1263.43V220H1243.88V192ZM1271.52 192H1291.07V220H1271.52V192ZM1299.16 192H1318.72V220H1299.16V192ZM1326.81 192H1346.36V220H1326.81V192ZM1354.45 192H1374V220H1354.45V192ZM464.702 266H484.253V294H464.702V266ZM492.344 266H511.895V294H492.344V266ZM519.986 266H539.537V294H519.986V266ZM547.627 266H567.179V294H547.627V266ZM575.269 266H594.821V294H575.269V266ZM602.911 266H622.462V294H602.911V266ZM630.553 266H650.104V294H630.553V266ZM658.195 266H677.746V294H658.195V266ZM685.836 266H705.388V294H685.836V266ZM713.478 266H733.03V294H713.478V266ZM741.12 266H760.671V294H741.12V266ZM768.762 266H788.313V294H768.762V266ZM796.404 266H815.955V294H796.404V266ZM824.045 266H843.597V294H824.045V266ZM851.687 266H871.239V294H851.687V266ZM437.06 302H456.612V330H437.06V302ZM464.702 302H484.253V330H464.702V302ZM492.344 302H511.895V330H492.344V302ZM519.986 302H539.537V330H519.986V302ZM547.627 302H567.179V330H547.627V302ZM575.269 302H594.821V330H575.269V302ZM602.911 302H622.462V330H602.911V302ZM630.553 302H650.104V330H630.553V302ZM658.195 302H677.746V330H658.195V302ZM685.836 302H705.388V330H685.836V302ZM713.478 302H733.03V330H713.478V302ZM741.12 302H760.671V330H741.12V302ZM768.762 302H788.313V330H768.762V302ZM796.404 302H815.955V330H796.404V302ZM824.045 302H843.597V330H824.045V302ZM851.687 302H871.239V330H851.687V302ZM967.463 270H987.015V298H967.463V270ZM995.105 270H1014.66V298H995.105V270ZM1022.75 270H1042.3V298H1022.75V270ZM1050.39 270H1069.94V298H1050.39V270ZM1078.03 270H1097.58V298H1078.03V270ZM1105.67 270H1125.22V298H1105.67V270ZM1133.31 270H1152.87V298H1133.31V270ZM1160.96 270H1180.51V298H1160.96V270ZM1188.6 270H1208.15V298H1188.6V270ZM1216.24 270H1235.79V298H1216.24V270ZM1243.88 270H1263.43V298H1243.88V270ZM1271.52 270H1291.07V298H1271.52V270ZM1299.16 270H1318.72V298H1299.16V270ZM1326.81 270H1346.36V298H1326.81V270ZM1354.45 270H1374V298H1354.45V270ZM939.821 306H959.373V334H939.821V306ZM967.463 306H987.015V334H967.463V306ZM995.105 306H1014.66V334H995.105V306ZM1022.75 306H1042.3V334H1022.75V306ZM1050.39 306H1069.94V334H1050.39V306ZM1078.03 306H1097.58V334H1078.03V306ZM1105.67 306H1125.22V334H1105.67V306ZM1133.31 306H1152.87V334H1133.31V306ZM1160.96 306H1180.51V334H1160.96V306ZM1188.6 306H1208.15V334H1188.6V306ZM1216.24 306H1235.79V334H1216.24V306ZM1243.88 306H1263.43V334H1243.88V306ZM1271.52 306H1291.07V334H1271.52V306ZM1299.16 306H1318.72V334H1299.16V306ZM1326.81 306H1346.36V334H1326.81V306ZM1354.45 306H1374V334H1354.45V306ZM99.8833 101.153L223.333 53.7373L255.899 92.6746L132.449 140.091L99.8833 101.153ZM98.3285 102.829L129.133 140.66L65.9514 140.052L98.3285 102.829Z" stroke="black"/>
</svg>