<svg width="923" height="231" viewBox="0 0 923 231" fill="none" xmlns="http://www.w3.org/2000/svg">
<path d="M180 1.07979V1H922V230H180V229.92C177.843 229.973 175.676 230 173.5 230C78.2309 230 1 178.737 1 115.5C1 52.2634 78.2309 1 173.5 1C175.676 1 177.843 1.02675 180 1.07979Z" fill="#C4C4C4"/>
<path d="M182 127H211V155H182V127Z" fill="#C4C4C4"/>
<path d="M223 31H252V59H223V31Z" fill="#C4C4C4"/>
<path d="M264 31H293V59H264V31Z" fill="#C4C4C4"/>
<path d="M305 31H334V59H305V31Z" fill="#C4C4C4"/>
<path d="M346 31H375V59H346V31Z" fill="#C4C4C4"/>
<path d="M387 31H416V59H387V31Z" fill="#C4C4C4"/>
<path d="M428 31H457V59H428V31Z" fill="#C4C4C4"/>
<path d="M469 31H498V59H469V31Z" fill="#C4C4C4"/>
<path d="M510 31H539V59H510V31Z" fill="#C4C4C4"/>
<path d="M551 31H580V59H551V31Z" fill="#C4C4C4"/>
<path d="M592 31H621V59H592V31Z" fill="#C4C4C4"/>
<path d="M633 31H662V59H633V31Z" fill="#C4C4C4"/>
<path d="M674 31H703V59H674V31Z" fill="#C4C4C4"/>
<path d="M715 31H744V59H715V31Z" fill="#C4C4C4"/>
<path d="M756 31H785V59H756V31Z" fill="#C4C4C4"/>
<path d="M223 67H252V95H223V67Z" fill="#C4C4C4"/>
<path d="M264 67H293V95H264V67Z" fill="#C4C4C4"/>
<path d="M305 67H334V95H305V67Z" fill="#C4C4C4"/>
<path d="M346 67H375V95H346V67Z" fill="#C4C4C4"/>
<path d="M387 67H416V95H387V67Z" fill="#C4C4C4"/>
<path d="M428 67H457V95H428V67Z" fill="#C4C4C4"/>
<path d="M469 67H498V95H469V67Z" fill="#C4C4C4"/>
<path d="M510 67H539V95H510V67Z" fill="#C4C4C4"/>
<path d="M551 67H580V95H551V67Z" fill="#C4C4C4"/>
<path d="M592 67H621V95H592V67Z" fill="#C4C4C4"/>
<path d="M633 67H662V95H633V67Z" fill="#C4C4C4"/>
<path d="M674 67H703V95H674V67Z" fill="#C4C4C4"/>
<path d="M715 67H744V95H715V67Z" fill="#C4C4C4"/>
<path d="M756 67H785V95H756V67Z" fill="#C4C4C4"/>
<path d="M223 127H252V155H223V127Z" fill="#C4C4C4"/>
<path d="M264 127H293V155H264V127Z" fill="#C4C4C4"/>
<path d="M305 127H334V155H305V127Z" fill="#C4C4C4"/>
<path d="M346 127H375V155H346V127Z" fill="#C4C4C4"/>
<path d="M387 127H416V155H387V127Z" fill="#C4C4C4"/>
<path d="M428 127H457V155H428V127Z" fill="#C4C4C4"/>
<path d="M469 127H498V155H469V127Z" fill="#C4C4C4"/>
<path d="M510 127H539V155H510V127Z" fill="#C4C4C4"/>
<path d="M551 127H580V155H551V127Z" fill="#C4C4C4"/>
<path d="M592 127H621V155H592V127Z" fill="#C4C4C4"/>
<path d="M633 127H662V155H633V127Z" fill="#C4C4C4"/>
<path d="M674 127H703V155H674V127Z" fill="#C4C4C4"/>
<path d="M715 127H744V155H715V127Z" fill="#C4C4C4"/>
<path d="M756 127H785V155H756V127Z" fill="#C4C4C4"/>
<path d="M797 127H826V155H797V127Z" fill="#C4C4C4"/>
<path d="M182 163H211V191H182V163Z" fill="#C4C4C4"/>
<path d="M223 163H252V191H223V163Z" fill="#C4C4C4"/>
<path d="M264 163H293V191H264V163Z" fill="#C4C4C4"/>
<path d="M305 163H334V191H305V163Z" fill="#C4C4C4"/>
<path d="M346 163H375V191H346V163Z" fill="#C4C4C4"/>
<path d="M387 163H416V191H387V163Z" fill="#C4C4C4"/>
<path d="M428 163H457V191H428V163Z" fill="#C4C4C4"/>
<path d="M469 163H498V191H469V163Z" fill="#C4C4C4"/>
<path d="M510 163H539V191H510V163Z" fill="#C4C4C4"/>
<path d="M551 163H580V191H551V163Z" fill="#C4C4C4"/>
<path d="M592 163H621V191H592V163Z" fill="#C4C4C4"/>
<path d="M633 163H662V191H633V163Z" fill="#C4C4C4"/>
<path d="M674 163H703V191H674V163Z" fill="#C4C4C4"/>
<path d="M715 163H744V191H715V163Z" fill="#C4C4C4"/>
<path d="M756 163H785V191H756V163Z" fill="#C4C4C4"/>
<path d="M797 163H826V191H797V163Z" fill="#C4C4C4"/>
<path d="M29 92H57V138H29V92Z" fill="#C4C4C4"/>
<path d="M57.4486 139L110.615 168.905L96.6964 193.65L43.5298 163.745L57.4486 139Z" fill="#C4C4C4"/>
<path d="M56.1932 138.977L42.4845 162.711L28.7854 139.255L56.1932 138.977Z" fill="#C4C4C4"/>
<path d="M43.5082 64.5321L96.577 34.4538L110.576 59.1537L57.5076 89.2319L43.5082 64.5321Z" fill="#C4C4C4"/>
<path d="M42.8397 65.595L56.0822 89.5929L28.9214 89.2073L42.8397 65.595Z" fill="#C4C4C4"/>
<path d="M153.5 2L153.5 230M180 1.07979V1H922V230H180V229.92C177.843 229.973 175.676 230 173.5 230C78.2309 230 1 178.737 1 115.5C1 52.2634 78.2309 1 173.5 1C175.676 1 177.843 1.02675 180 1.07979ZM182 127H211V155H182V127ZM223 31H252V59H223V31ZM264 31H293V59H264V31ZM305 31H334V59H305V31ZM346 31H375V59H346V31ZM387 31H416V59H387V31ZM428 31H457V59H428V31ZM469 31H498V59H469V31ZM510 31H539V59H510V31ZM551 31H580V59H551V31ZM592 31H621V59H592V31ZM633 31H662V59H633V31ZM674 31H703V59H674V31ZM715 31H744V59H715V31ZM756 31H785V59H756V31ZM223 67H252V95H223V67ZM264 67H293V95H264V67ZM305 67H334V95H305V67ZM346 67H375V95H346V67ZM387 67H416V95H387V67ZM428 67H457V95H428V67ZM469 67H498V95H469V67ZM510 67H539V95H510V67ZM551 67H580V95H551V67ZM592 67H621V95H592V67ZM633 67H662V95H633V67ZM674 67H703V95H674V67ZM715 67H744V95H715V67ZM756 67H785V95H756V67ZM223 127H252V155H223V127ZM264 127H293V155H264V127ZM305 127H334V155H305V127ZM346 127H375V155H346V127ZM387 127H416V155H387V127ZM428 127H457V155H428V127ZM469 127H498V155H469V127ZM510 127H539V155H510V127ZM551 127H580V155H551V127ZM592 127H621V155H592V127ZM633 127H662V155H633V127ZM674 127H703V155H674V127ZM715 127H744V155H715V127ZM756 127H785V155H756V127ZM797 127H826V155H797V127ZM182 163H211V191H182V163ZM223 163H252V191H223V163ZM264 163H293V191H264V163ZM305 163H334V191H305V163ZM346 163H375V191H346V163ZM387 163H416V191H387V163ZM428 163H457V191H428V163ZM469 163H498V191H469V163ZM510 163H539V191H510V163ZM551 163H580V191H551V163ZM592 163H621V191H592V163ZM633 163H662V191H633V163ZM674 163H703V191H674V163ZM715 163H744V191H715V163ZM756 163H785V191H756V163ZM797 163H826V191H797V163ZM29 92H57V138H29V92ZM57.4486 139L110.615 168.905L96.6964 193.65L43.5298 163.745L57.4486 139ZM56.1932 138.977L42.4845 162.711L28.7854 139.255L56.1932 138.977ZM43.5082 64.5321L96.577 34.4538L110.576 59.1537L57.5076 89.2319L43.5082 64.5321ZM42.8397 65.595L56.0822 89.5929L28.9214 89.2073L42.8397 65.595Z" stroke="#020202"/>
</svg>
